<?xml version="1.0" encoding="utf-8"?>
<!-- Svg Vector Icons : http://www.onlinewebfonts.com/icon -->
<!DOCTYPE svg PUBLIC "-//W3C//DTD SVG 1.1//EN" "http://www.w3.org/Graphics/SVG/1.1/DTD/svg11.dtd">
<svg version="1.1" xmlns="http://www.w3.org/2000/svg" xmlns:xlink="http://www.w3.org/1999/xlink" x="0px" y="0px" viewBox="0 0 256 256" enable-background="new 0 0 256 256" xml:space="preserve">
<metadata> Svg Vector Icons : http://www.onlinewebfonts.com/icon </metadata>
<g><g><g><g><g id="_x3C_Compound_Path_x3E__1_"><g><g><path fill="#000000" d="M128.7,245.5c-17,0-31.7-15.5-36.3-37.9H14.9c-2,0-3.7-1.2-4.5-3c-0.8-1.8-0.4-3.9,1-5.3c5-5.2,9.8-9.3,14-12.9c10.3-8.8,16.6-14.1,16.6-27.9v-45.4c0.2-39.1,26.2-73.8,62.3-83.9c1.8-7.9,8.1-18.7,23.8-18.7c15.5,0,22,11.1,23.8,19.2c36.3,10.2,62.4,44.7,62.6,83.4v46.9c0,13.3,5.5,17.8,15.5,26c4.4,3.6,9.4,7.7,14.7,13.2c1.3,1.4,1.7,3.5,1,5.3c-0.8,1.8-2.5,3-4.5,3H165C160.4,230,145.7,245.5,128.7,245.5z M102.8,209.3c4.4,15.6,14.7,26.4,25.9,26.4s21.5-10.8,25.9-26.4H102.8z M27,197.8h201.8c-1.8-1.5-3.5-2.9-5.1-4.2c-10.7-8.7-19.1-15.6-19.1-33.5v-46.9c-0.2-35.4-24.7-66.8-58.3-74.8c-2.1-0.5-3.6-2.3-3.7-4.4c-0.1-1.4-1.5-13.7-14.6-13.7c-13.5,0-14.5,11.8-14.6,13.1c-0.1,2.2-1.6,4-3.8,4.5c-33.4,7.9-57.9,39.6-58,75.3v45.3c0,18.2-9.3,26.1-20,35.3C30.2,195.1,28.6,196.4,27,197.8z"/></g></g></g><g><g><path fill="#000000" d="M153.9,40.3c-0.5,0-0.9-0.1-1.4-0.2c-25.8-7.8-47.1-1.3-47.3-1.2c-2.6,0.8-5.3-0.6-6.1-3.2c-0.8-2.6,0.6-5.3,3.1-6.1c1-0.3,24.2-7.6,53.1,1.2c2.6,0.8,4,3.5,3.3,6.1C157.9,39,156,40.3,153.9,40.3z"/></g></g></g></g><g></g><g></g><g></g><g></g><g></g><g></g><g></g><g></g><g></g><g></g><g></g><g></g><g></g><g></g><g></g></g></g>
</svg>