<?xml version="1.0" encoding="utf-8"?>
<!-- Svg Vector Icons : http://www.onlinewebfonts.com/icon -->
<!DOCTYPE svg PUBLIC "-//W3C//DTD SVG 1.1//EN" "http://www.w3.org/Graphics/SVG/1.1/DTD/svg11.dtd">
<svg version="1.1" xmlns="http://www.w3.org/2000/svg" xmlns:xlink="http://www.w3.org/1999/xlink" x="0px" y="0px" viewBox="0 0 256 256" enable-background="new 0 0 256 256" xml:space="preserve">
<metadata> Svg Vector Icons : http://www.onlinewebfonts.com/icon </metadata>
<g><g><path fill="#000000" d="M236.2,196.8c0,8.1-6.6,14.8-14.8,14.8H34.6c-8.1,0-14.8-6.6-14.8-14.8V59.2c0-8.1,6.6-14.8,14.8-14.8h186.8c8.1,0,14.8,6.6,14.8,14.8V196.8L236.2,196.8z M246,196.8V59.2c0-13.6-11-24.6-24.6-24.6H34.6C21,34.6,10,45.6,10,59.2v137.7c0,13.6,11,24.6,24.6,24.6h186.8C235,221.4,246,210.4,246,196.8L246,196.8z"/><path fill="#000000" d="M14.9,93.6h226.2c2.7,0,4.9-2.2,4.9-4.9c0-2.7-2.2-4.9-4.9-4.9H14.9c-2.7,0-4.9,2.2-4.9,4.9C10,91.4,12.2,93.6,14.9,93.6L14.9,93.6z"/><path fill="#000000" d="M49.3,64.1L49.3,64.1L49.3,64.1L49.3,64.1L49.3,64.1L49.3,64.1z M59.2,64.1c0-5.4-4.4-9.8-9.8-9.8c-5.4,0-9.8,4.4-9.8,9.8c0,5.4,4.4,9.8,9.8,9.8C54.8,73.9,59.2,69.5,59.2,64.1L59.2,64.1z"/><path fill="#000000" d="M78.8,64.1L78.8,64.1L78.8,64.1L78.8,64.1L78.8,64.1L78.8,64.1z M88.7,64.1c0-5.4-4.4-9.8-9.8-9.8c-5.4,0-9.8,4.4-9.8,9.8c0,5.4,4.4,9.8,9.8,9.8C84.3,73.9,88.7,69.5,88.7,64.1L88.7,64.1z"/><path fill="#000000" d="M108.3,64.1L108.3,64.1L108.3,64.1L108.3,64.1L108.3,64.1L108.3,64.1z M118.2,64.1c0-5.4-4.4-9.8-9.8-9.8c-5.4,0-9.8,4.4-9.8,9.8c0,5.4,4.4,9.8,9.8,9.8C113.8,73.9,118.2,69.5,118.2,64.1L118.2,64.1z"/><path fill="#000000" d="M54.3,123.1h-9.8l4.9,4.9v-9.8l-4.9,4.9H54.3l-4.9-4.9v9.8L54.3,123.1L54.3,123.1z M54.3,132.9c2.7,0,4.9-2.2,4.9-4.9v-9.8c0-2.7-2.2-4.9-4.9-4.9h-9.8c-2.7,0-4.9,2.2-4.9,4.9v9.8c0,2.7,2.2,4.9,4.9,4.9H54.3L54.3,132.9z"/><path fill="#000000" d="M54.3,152.6h-9.8l4.9,4.9v-9.8l-4.9,4.9H54.3l-4.9-4.9v9.8L54.3,152.6L54.3,152.6z M54.3,162.4c2.7,0,4.9-2.2,4.9-4.9v-9.8c0-2.7-2.2-4.9-4.9-4.9h-9.8c-2.7,0-4.9,2.2-4.9,4.9v9.8c0,2.7,2.2,4.9,4.9,4.9H54.3L54.3,162.4z"/><path fill="#000000" d="M54.3,182.1h-9.8l4.9,4.9v-9.8l-4.9,4.9H54.3l-4.9-4.9v9.8L54.3,182.1L54.3,182.1z M54.3,191.9c2.7,0,4.9-2.2,4.9-4.9v-9.8c0-2.7-2.2-4.9-4.9-4.9h-9.8c-2.7,0-4.9,2.2-4.9,4.9v9.8c0,2.7,2.2,4.9,4.9,4.9H54.3L54.3,191.9z"/><path fill="#000000" d="M93.6,123.1h-9.8l4.9,4.9v-9.8l-4.9,4.9H93.6l-4.9-4.9v9.8L93.6,123.1L93.6,123.1z M93.6,132.9c2.7,0,4.9-2.2,4.9-4.9v-9.8c0-2.7-2.2-4.9-4.9-4.9h-9.8c-2.7,0-4.9,2.2-4.9,4.9v9.8c0,2.7,2.2,4.9,4.9,4.9H93.6L93.6,132.9z"/><path fill="#000000" d="M93.6,152.6h-9.8l4.9,4.9v-9.8l-4.9,4.9H93.6l-4.9-4.9v9.8L93.6,152.6L93.6,152.6z M93.6,162.4c2.7,0,4.9-2.2,4.9-4.9v-9.8c0-2.7-2.2-4.9-4.9-4.9h-9.8c-2.7,0-4.9,2.2-4.9,4.9v9.8c0,2.7,2.2,4.9,4.9,4.9H93.6L93.6,162.4z"/><path fill="#000000" d="M93.6,182.1h-9.8l4.9,4.9v-9.8l-4.9,4.9H93.6l-4.9-4.9v9.8L93.6,182.1L93.6,182.1z M93.6,191.9c2.7,0,4.9-2.2,4.9-4.9v-9.8c0-2.7-2.2-4.9-4.9-4.9h-9.8c-2.7,0-4.9,2.2-4.9,4.9v9.8c0,2.7,2.2,4.9,4.9,4.9H93.6L93.6,191.9z"/><path fill="#000000" d="M132.9,123.1h-9.8l4.9,4.9v-9.8l-4.9,4.9H132.9l-4.9-4.9v9.8L132.9,123.1L132.9,123.1z M132.9,132.9c2.7,0,4.9-2.2,4.9-4.9v-9.8c0-2.7-2.2-4.9-4.9-4.9h-9.8c-2.7,0-4.9,2.2-4.9,4.9v9.8c0,2.7,2.2,4.9,4.9,4.9H132.9L132.9,132.9z"/><path fill="#000000" d="M132.9,152.6h-9.8l4.9,4.9v-9.8l-4.9,4.9H132.9l-4.9-4.9v9.8L132.9,152.6L132.9,152.6z M132.9,162.4c2.7,0,4.9-2.2,4.9-4.9v-9.8c0-2.7-2.2-4.9-4.9-4.9h-9.8c-2.7,0-4.9,2.2-4.9,4.9v9.8c0,2.7,2.2,4.9,4.9,4.9H132.9L132.9,162.4z"/><path fill="#000000" d="M132.9,182.1h-9.8l4.9,4.9v-9.8l-4.9,4.9H132.9l-4.9-4.9v9.8L132.9,182.1L132.9,182.1z M132.9,191.9c2.7,0,4.9-2.2,4.9-4.9v-9.8c0-2.7-2.2-4.9-4.9-4.9h-9.8c-2.7,0-4.9,2.2-4.9,4.9v9.8c0,2.7,2.2,4.9,4.9,4.9H132.9L132.9,191.9z"/><path fill="#000000" d="M172.3,123.1h-9.8l4.9,4.9v-9.8l-4.9,4.9H172.3l-4.9-4.9v9.8L172.3,123.1L172.3,123.1z M172.3,132.9c2.7,0,4.9-2.2,4.9-4.9v-9.8c0-2.7-2.2-4.9-4.9-4.9h-9.8c-2.7,0-4.9,2.2-4.9,4.9v9.8c0,2.7,2.2,4.9,4.9,4.9H172.3L172.3,132.9z"/><path fill="#000000" d="M172.3,152.6h-9.8l4.9,4.9v-9.8l-4.9,4.9H172.3l-4.9-4.9v9.8L172.3,152.6L172.3,152.6z M172.3,162.4c2.7,0,4.9-2.2,4.9-4.9v-9.8c0-2.7-2.2-4.9-4.9-4.9h-9.8c-2.7,0-4.9,2.2-4.9,4.9v9.8c0,2.7,2.2,4.9,4.9,4.9H172.3L172.3,162.4z"/><path fill="#000000" d="M172.3,182.1h-9.8l4.9,4.9v-9.8l-4.9,4.9H172.3l-4.9-4.9v9.8L172.3,182.1L172.3,182.1z M172.3,191.9c2.7,0,4.9-2.2,4.9-4.9v-9.8c0-2.7-2.2-4.9-4.9-4.9h-9.8c-2.7,0-4.9,2.2-4.9,4.9v9.8c0,2.7,2.2,4.9,4.9,4.9H172.3L172.3,191.9z"/><path fill="#000000" d="M211.6,123.1h-9.8l4.9,4.9v-9.8l-4.9,4.9H211.6l-4.9-4.9v9.8L211.6,123.1L211.6,123.1z M211.6,132.9c2.7,0,4.9-2.2,4.9-4.9v-9.8c0-2.7-2.2-4.9-4.9-4.9h-9.8c-2.7,0-4.9,2.2-4.9,4.9v9.8c0,2.7,2.2,4.9,4.9,4.9H211.6L211.6,132.9z"/><path fill="#000000" d="M211.6,152.6h-9.8l4.9,4.9v-9.8l-4.9,4.9H211.6l-4.9-4.9v9.8L211.6,152.6L211.6,152.6z M211.6,162.4c2.7,0,4.9-2.2,4.9-4.9v-9.8c0-2.7-2.2-4.9-4.9-4.9h-9.8c-2.7,0-4.9,2.2-4.9,4.9v9.8c0,2.7,2.2,4.9,4.9,4.9H211.6L211.6,162.4z"/><path fill="#000000" d="M211.6,182.1h-9.8l4.9,4.9v-9.8l-4.9,4.9H211.6l-4.9-4.9v9.8L211.6,182.1L211.6,182.1z M211.6,191.9c2.7,0,4.9-2.2,4.9-4.9v-9.8c0-2.7-2.2-4.9-4.9-4.9h-9.8c-2.7,0-4.9,2.2-4.9,4.9v9.8c0,2.7,2.2,4.9,4.9,4.9H211.6L211.6,191.9z"/></g></g>
</svg>