<?xml version="1.0" encoding="utf-8"?>
<!-- Svg Vector Icons : http://www.onlinewebfonts.com/icon -->
<!DOCTYPE svg PUBLIC "-//W3C//DTD SVG 1.1//EN" "http://www.w3.org/Graphics/SVG/1.1/DTD/svg11.dtd">
<svg version="1.1" xmlns="http://www.w3.org/2000/svg" xmlns:xlink="http://www.w3.org/1999/xlink" x="0px" y="0px" viewBox="0 0 256 256" enable-background="new 0 0 256 256" xml:space="preserve">
<metadata> Svg Vector Icons : http://www.onlinewebfonts.com/icon </metadata>
<g><g><path fill="#000000" d="M128,10C62.8,10,10,62.8,10,128c0,65.2,52.8,118,118,118c65.2,0,118-52.8,118-118C246,62.8,193.2,10,128,10z M128,227.6c-55,0-99.6-44.6-99.6-99.6S73,28.4,128,28.4S227.6,73,227.6,128S183,227.6,128,227.6z"/><path fill="#000000" d="M128,165c-13.8,0-28.3-2.9-36.8-9.1c0,0.1-0.1,0.2-0.1,0.3c0,1.5,0,7.2,0,8.8c0,8.1,16.5,14.6,36.9,14.6s36.9-6.6,36.9-14.6c0-1.5,0-7.2,0-8.8c0-0.1-0.1-0.2-0.1-0.3C156.3,162.1,141.8,165,128,165z"/><path fill="#000000" d="M128,143c-13.8,0-28.3-2.9-36.8-9.1c0,0.1-0.1,0.2-0.1,0.3c0,1.5,0,7.2,0,8.8c0,8.1,16.5,14.7,36.9,14.7s36.9-6.6,36.9-14.7c0-1.5,0-7.2,0-8.8c0-0.1-0.1-0.2-0.1-0.3C156.3,140.1,141.8,143,128,143z"/><path fill="#000000" d="M91.1,112.6c0,1.9,0,7,0,8.4c0,8.1,16.5,14.6,36.9,14.6s36.9-6.6,36.9-14.6c0-1.5,0-6.6,0-8.4c-8.5,6.2-23,9.2-36.9,9.2S99.6,118.8,91.1,112.6z"/><path fill="#000000" d="M128,76.4c-20.4,0-36.9,6.5-36.9,14.6c0,1.5,0,7.2,0,8.8c0,8.1,16.5,14.6,36.9,14.6s36.9-6.6,36.9-14.6c0-1.5,0-7.2,0-8.8C164.9,82.9,148.4,76.4,128,76.4z"/></g></g>
</svg>