<?xml version="1.0" encoding="utf-8"?>
<!-- Svg Vector Icons : http://www.onlinewebfonts.com/icon -->
<!DOCTYPE svg PUBLIC "-//W3C//DTD SVG 1.1//EN" "http://www.w3.org/Graphics/SVG/1.1/DTD/svg11.dtd">
<svg version="1.1" xmlns="http://www.w3.org/2000/svg" xmlns:xlink="http://www.w3.org/1999/xlink" x="0px" y="0px" viewBox="0 0 256 256" enable-background="new 0 0 256 256" xml:space="preserve">
<metadata> Svg Vector Icons : http://www.onlinewebfonts.com/icon </metadata>
<g><g><path fill="#000000" d="M246,128c0,4.3-1.9,8.1-4.9,10.8l0,0l-49.2,43.6l0,0c-2.6,2.3-6.1,3.7-9.9,3.7c-8.1,0-14.7-6.5-14.7-14.5c0-4.3,1.9-8.1,4.9-10.8l0,0l20.6-18.3h-89.4l0,0c-8.1,0-14.7-6.5-14.7-14.5c0-8,6.6-14.5,14.7-14.5l0,0h89.4l-20.6-18.2l0,0c-3-2.6-4.9-6.5-4.9-10.8c0-8,6.6-14.5,14.7-14.5c3.8,0,7.2,1.4,9.9,3.7l0,0l49.2,43.6l0,0C244.1,119.9,246,123.7,246,128z M98.5,31.2h-59v193.6h59c8.1,0,14.7,6.5,14.7,14.5c0,8-6.6,14.5-14.7,14.5H24.7c-8.1,0-14.7-6.5-14.7-14.5V16.6c0-8,6.6-14.5,14.7-14.5h73.8c8.1,0,14.7,6.5,14.7,14.5C113.2,24.7,106.6,31.2,98.5,31.2z"/></g></g>
</svg>