<?xml version="1.0" encoding="utf-8"?>
<!-- Svg Vector Icons : http://www.onlinewebfonts.com/icon -->
<!DOCTYPE svg PUBLIC "-//W3C//DTD SVG 1.1//EN" "http://www.w3.org/Graphics/SVG/1.1/DTD/svg11.dtd">
<svg version="1.1" xmlns="http://www.w3.org/2000/svg" xmlns:xlink="http://www.w3.org/1999/xlink" x="0px" y="0px" viewBox="0 0 256 256" enable-background="new 0 0 256 256" xml:space="preserve">
<metadata> Svg Vector Icons : http://www.onlinewebfonts.com/icon </metadata>
<g><g><g><path fill="#000000" d="M117.1,10.5c-3.7,0.9-6.9,2.8-8.2,5.1c-0.9,1.6-2.4,11.1-2.4,15.3c0,4-0.5,4.5-7.1,6.6c-3.3,1-9.2,3.5-13.2,5.4c-4,1.9-7.4,3.5-7.6,3.5c-0.2,0-2.4-1.7-4.9-3.8c-7.7-6.4-10.1-7.9-13.2-7.9c-4.5,0-8.1,2.2-15.3,9.4c-7.2,7.3-9.5,10.8-9.8,15.1c-0.3,3.6,0.6,5.3,5.5,11.3c4.4,5.3,5.6,7.1,5.6,8c0,0.4-1.5,3.7-3.3,7.2c-1.8,3.6-4.2,9.5-5.4,13.1c-1.8,5.5-2.4,6.7-3.3,6.9c-0.6,0.1-4.4,0.6-8.5,1c-9.9,1-11.9,2-14.2,7.1c-1.3,2.9-2.2,12.1-1.8,17.9c0.7,8.3,1.9,12.2,4.8,14.6c1.9,1.7,3.8,2.1,11.2,2.9c7.5,0.7,9.2,1.1,9.7,2c0.3,0.4,1.2,3.4,2.3,6.7c1,3.3,3.3,8.8,5.1,12.5c1.8,3.6,3.3,6.9,3.3,7.3c0,0.5-1,2-2.2,3.3c-3.5,4.1-6.2,7.4-7.8,9.8c-2,3-2,6.8-0.1,10.5c2.9,5.6,13.1,15.7,18.6,18.4c3.2,1.6,6.8,1.7,9.4,0.5c1.7-0.9,6.1-4.2,10.8-8.3c1.4-1.2,2.9-2.1,3.3-2.1c0.5,0,3.8,1.5,7.3,3.3c3.6,1.8,9.2,4.1,12.5,5.1c3.3,1.1,6.3,2,6.7,2.3c1,0.5,1.3,2.1,2,9.8c0.8,9.6,1.8,11.7,6.3,13.8c5.4,2.6,20.2,3.1,27.5,0.8c6.4-1.9,7.9-4.6,9-16.4c0.4-4.6,0.9-6.8,1.4-7.4c0.5-0.5,3.6-1.8,6.9-2.8c3.3-1.1,9-3.4,12.6-5.2c4.5-2.2,6.9-3.2,7.7-3c0.6,0.2,3.1,1.9,5.4,3.9c6,5,8.2,6.5,10.6,7c5,1.1,10.1-1.8,18.9-11c6.2-6.4,8.3-10,8.2-13.9c-0.1-3.1-1-4.8-5.9-10.8c-6.7-8.2-6.5-6.6-2.4-15.2c1.9-4,4.3-9.6,5.1-12.4c0.9-2.8,1.8-5.4,2-5.8c0.6-1.1,2.6-2,4.6-2c3.9,0,13.2-1.5,14.9-2.3c2.4-1.1,4-3.3,5.2-6.9c0.8-2.3,0.9-4.4,0.9-13c0-10.8-0.3-12.5-2.6-16.1c-2-3.1-4.2-3.9-13.6-4.9c-4.5-0.5-8.5-1.1-8.9-1.3c-0.3-0.2-1.2-2.3-1.9-4.7c-1.7-5.5-3.7-10.4-6.9-16.8l-2.6-5.1l1.3-1.8c0.7-1,3-3.9,5.1-6.6c5.4-6.6,6.4-9.3,4.9-13.7c-2-5.8-13.4-17.9-19.8-20.7c-2.7-1.3-6.6-1.4-8.7-0.3c-0.9,0.5-3.8,2.6-6.4,4.7c-2.6,2.1-5.5,4.4-6.5,5.1l-1.8,1.2l-7.5-3.6c-6.7-3.3-15.8-6.7-17.7-6.7c-1.4,0-2.1-2.3-2.7-8.4c-1-9.8-1.4-11.2-3.8-13.7c-3.2-3.3-5.7-3.9-16.6-4.1C122.8,9.8,119.6,10,117.1,10.5z M138.7,76.8c10.4,2.1,18.6,6.6,26.2,14.2c7.7,7.7,12.1,15.9,14.3,26.5c1.5,7,1.1,17.7-0.8,24.1c-1.6,5.3-4.1,10.8-6.8,14.9c-2.5,3.7-8.6,10.2-12.6,13.2c-3.8,2.9-12,6.9-17,8.2c-14.5,4-30.1,1.5-42.7-6.9c-23.8-15.8-30.4-48.2-14.5-72.2c4.2-6.4,12.7-14,19.4-17.4C114.6,76.3,127.6,74.5,138.7,76.8z"/></g></g></g>
</svg>